Coordinates
version=1
nRows=27
nColumns=33
inDegrees=yes

Units are S.I. units (second, meters, Newtons, ...)
Angles are in degrees.

endheader
time	ground_thorax_rot_x	ground_thorax_rot_y	ground_thorax_rot_z	ground_thorax_tx	ground_thorax_ty	ground_thorax_tz	clav_prot_r	clav_elev_r	scapula_abduction_r	scapula_elevation_r	scapula_upward_rot_r	scapula_winging_r	shoulder_elv_r	plane_of_elev_r	axial_rot_r	elbow_flexion_r	pro_sup_r	wrist_flex_r	wrist_dev_r	clav_prot_l	clav_elev_l	scapula_abduction_l	scapula_elevation_l	scapula_upward_rot_l	scapula_winging_l	shoulder_elv_l	plane_of_elev_l	axial_rot_l	elbow_flexion_l	pro_sup_l	wrist_flex_l	wrist_dev_l	
12.0200	32.257918	24.183889	31.308669	-104.351304	836.295269	-39.124698	12.610231	34.317482	25.593528	45.000000	-45.000000	-3328.657382	-1906.623715	159.053206	21.926098	2159.313838	-203.578495	13.203624	15.148665	-7.128779	-45.000000	-40.172204	45.000000	-45.000000	-3854.306989	-1347.388680	17.848310	-180.000000	372.534317	195.582315	13.370725	-14.088038	
12.0300	32.313244	24.049273	31.179691	-105.276117	838.057985	-39.429252	12.601517	34.286620	25.614775	45.000000	-45.000000	-3328.734214	-1906.601985	159.014438	21.758643	2159.243566	-204.243368	13.181439	15.152356	-6.998892	-45.000000	-40.287068	45.000000	-45.000000	-3854.232342	-1347.325998	17.888069	-180.000000	372.510158	195.186122	13.421340	-14.136082	
12.0400	32.369019	23.921618	31.054263	-106.150003	839.771676	-39.724932	12.589325	34.256208	25.632783	45.000000	-45.000000	-3328.807166	-1906.580199	158.976294	21.588708	2159.173603	-204.885307	13.158199	15.152072	-6.865013	-45.000000	-40.398030	45.000000	-45.000000	-3854.157365	-1347.268663	17.928496	-180.000000	372.483889	194.792842	13.469848	-14.182993	
12.0500	32.427331	23.796545	30.929808	-106.975831	841.429002	-40.008656	12.575341	34.230761	25.659364	45.000000	-45.000000	-3328.882579	-1906.566405	158.941771	21.416700	2159.102852	-205.497118	13.137661	15.147411	-6.741983	-45.000000	-40.499277	45.000000	-45.000000	-3854.087318	-1347.214508	17.966807	-180.000000	372.456783	194.408031	13.518230	-14.230058	
12.0600	32.487946	23.675734	30.807115	-107.755879	843.022088	-40.277002	12.557785	34.207645	25.688853	45.000000	-45.000000	-3328.957036	-1906.557415	158.909936	21.244619	2159.033404	-206.073133	13.120467	15.138136	-6.622736	-45.000000	-40.591546	45.000000	-45.000000	-3854.020285	-1347.165070	18.005119	-180.000000	372.429523	194.038178	13.566003	-14.276736	
12.0700	32.552400	23.554065	30.684169	-108.491811	844.543009	-40.526301	12.536185	34.189118	25.729575	45.000000	-45.000000	-3329.031870	-1906.557351	158.881976	21.071024	2158.966418	-206.608393	13.109338	15.123713	-6.512288	-45.000000	-40.671625	45.000000	-45.000000	-3853.957962	-1347.118839	18.042331	-180.000000	372.406509	193.691321	13.614578	-14.323672	
12.0800	32.619185	23.434817	30.562822	-109.184649	845.983834	-40.752652	12.510034	34.171251	25.770307	45.000000	-45.000000	-3329.101108	-1906.558784	158.855495	20.899312	2158.904730	-207.100304	13.104072	15.103784	-6.401703	-45.000000	-40.743633	45.000000	-45.000000	-3853.897235	-1347.077152	18.081557	-180.000000	372.388599	193.374470	13.661945	-14.369485	
12.0900	32.687339	23.315229	30.441964	-109.835092	847.337426	-40.952207	12.478511	34.153775	25.807956	45.000000	-45.000000	-3329.161003	-1906.560160	158.826011	20.732544	2158.849301	-207.548576	13.105801	15.077774	-6.285955	-45.000000	-40.808725	45.000000	-45.000000	-3853.837210	-1347.041547	18.124768	-180.000000	372.380400	193.094056	13.708303	-14.413795	
12.1000	32.756048	23.199144	30.322594	-110.443268	848.596992	-41.121365	12.446595	34.136699	25.833685	45.000000	-45.000000	-3329.213127	-1906.559540	158.790495	20.572828	2158.799388	-207.952895	13.114640	15.046556	-6.173767	-45.000000	-40.868946	45.000000	-45.000000	-3853.780105	-1347.014086	18.169358	-180.000000	372.373406	192.854266	13.751330	-14.459845	
12.1100	32.821857	23.088194	30.210567	-111.008941	849.756990	-41.257318	12.412094	34.119562	25.848459	45.000000	-45.000000	-3329.256847	-1906.557984	158.751417	20.419999	2158.755181	-208.315691	13.131349	15.009115	-6.061171	-45.000000	-40.922581	45.000000	-45.000000	-3853.724039	-1346.994087	18.214389	-180.000000	372.368297	192.657855	13.790244	-14.508891	
12.1200	32.879623	22.991947	30.111451	-111.531087	850.812777	-41.358405	12.381744	34.099962	25.839030	45.000000	-45.000000	-3329.293584	-1906.550736	158.709516	20.277117	2158.712938	-208.640393	13.154680	14.966895	-5.959142	-45.000000	-40.981336	45.000000	-45.000000	-3853.670439	-1346.985034	18.253791	-180.000000	372.354618	192.504252	13.820632	-14.562834	
12.1300	32.925852	22.910810	30.032179	-112.007977	851.761424	-41.424537	12.348374	34.079014	25.816501	45.000000	-45.000000	-3329.323546	-1906.542684	158.672174	20.141910	2158.674784	-208.933036	13.185008	14.917520	-5.856320	-45.000000	-41.044786	45.000000	-45.000000	-3853.616087	-1346.986192	18.288500	-180.000000	372.338925	192.393432	13.843752	-14.622704	
12.1400	32.959299	22.847977	29.971926	-112.436692	852.600844	-41.457149	12.320339	34.056521	25.771648	45.000000	-45.000000	-3329.347913	-1906.530488	158.636940	20.017807	2158.636004	-209.196048	13.219833	14.864405	-5.772133	-45.000000	-41.120596	45.000000	-45.000000	-3853.568016	-1346.998214	18.309387	-180.000000	372.313474	192.324818	13.855140	-14.690646	
12.1500	32.984807	22.793966	29.933884	-112.813603	853.330451	-41.459081	12.287540	34.036046	25.735995	45.000000	-45.000000	-3329.368925	-1906.524459	158.615591	19.899556	2158.602964	-209.432546	13.260701	14.803223	-5.695207	-45.000000	-41.185029	45.000000	-45.000000	-3853.524130	-1347.012436	18.325930	-180.000000	372.292064	192.301466	13.858801	-14.768111	
12.1600	33.001271	22.749147	29.911270	-113.134673	853.950529	-41.434129	12.261837	34.016208	25.688391	45.000000	-45.000000	-3329.382448	-1906.515383	158.596892	19.794725	2158.568736	-209.640142	13.304172	14.740172	-5.646015	-45.000000	-41.252888	45.000000	-45.000000	-3853.493331	-1347.030398	18.326556	-180.000000	372.266486	192.325517	13.847312	-14.856185	
12.1700	33.016041	22.702150	29.903997	-113.396360	854.462797	-41.386360	12.232773	33.999039	25.654545	45.000000	-45.000000	-3329.391421	-1906.511905	158.586034	19.697977	2158.536491	-209.818431	13.352283	14.672967	-5.603909	-45.000000	-41.297536	45.000000	-45.000000	-3853.468954	-1347.048480	18.327818	-180.000000	372.247683	192.402918	13.825690	-14.957523	
12.1800	33.028166	22.654731	29.904959	-113.596332	854.869537	-41.320282	12.211496	33.983041	25.611599	45.000000	-45.000000	-3329.392627	-1906.506917	158.572474	19.614067	2158.499148	-209.962916	13.406001	14.604100	-5.587971	-45.000000	-41.331810	45.000000	-45.000000	-3853.458012	-1347.068278	18.318722	-180.000000	372.221378	192.533213	13.785025	-15.075431	
12.1900	33.043594	22.601658	29.917634	-113.733518	855.174266	-41.238852	12.186363	33.969431	25.587723	45.000000	-45.000000	-3329.391911	-1906.510458	158.567444	19.535396	2158.462700	-210.070953	13.464498	14.534682	-5.575331	-45.000000	-41.329160	45.000000	-45.000000	-3853.451952	-1347.085301	18.320399	-180.000000	372.197841	192.721165	13.731768	-15.210776	
12.2000	33.056691	22.551512	29.938311	-113.810600	855.380849	-41.148555	12.167380	33.957498	25.557022	45.000000	-45.000000	-3329.385541	-1906.514659	158.562012	19.467776	2158.424764	-210.139105	13.523768	14.471872	-5.580430	-45.000000	-41.319889	45.000000	-45.000000	-3853.457208	-1347.104013	18.319016	-180.000000	372.165123	192.953707	13.661525	-15.357962	
12.2100	33.069219	22.502307	29.967136	-113.827788	855.494878	-41.046008	12.144422	33.947192	25.532226	45.000000	-45.000000	-3329.371494	-1906.528224	158.563977	19.402123	2158.391416	-210.169292	13.596654	14.401274	-5.584377	-45.000000	-41.298530	45.000000	-45.000000	-3853.468672	-1347.127846	18.324825	-180.000000	372.132512	193.240279	13.567334	-15.529252	
12.2200	33.076981	22.459875	30.007496	-113.789332	855.521586	-40.933224	12.123059	33.939044	25.501734	45.000000	-45.000000	-3329.349840	-1906.545517	158.567605	19.339505	2158.363958	-210.159670	13.674636	14.334455	-5.600176	-45.000000	-41.276187	45.000000	-45.000000	-3853.487313	-1347.153282	18.325961	-180.000000	372.088565	193.584529	13.450357	-15.716454	
12.2300	33.082583	22.419935	30.054092	-113.698408	855.466862	-40.807165	12.099561	33.932898	25.471362	45.000000	-45.000000	-3329.317023	-1906.570978	158.575560	19.274123	2158.343719	-210.114791	13.771079	14.258526	-5.620845	-45.000000	-41.249641	45.000000	-45.000000	-3853.512736	-1347.182704	18.328280	-180.000000	372.042465	194.000397	13.299705	-15.934087	
12.2400	33.081649	22.389123	30.118566	-113.563159	855.335296	-40.674067	12.078142	33.928484	25.436031	45.000000	-45.000000	-3329.280704	-1906.597258	158.581535	19.205863	2158.329949	-210.037703	13.867346	14.197229	-5.651712	-45.000000	-41.220686	45.000000	-45.000000	-3853.539210	-1347.210700	18.323476	-180.000000	371.986854	194.477657	13.129902	-16.161495	
12.2500	33.077933	22.360186	30.185876	-113.387911	855.132185	-40.531004	12.057463	33.925537	25.392661	45.000000	-45.000000	-3329.232935	-1906.628207	158.586870	19.130713	2158.316555	-209.939926	13.987996	14.125321	-5.691447	-45.000000	-41.195823	45.000000	-45.000000	-3853.570290	-1347.246977	18.311114	-180.000000	371.929454	195.012665	12.925043	-16.418989	
12.2600	33.069047	22.340313	30.274065	-113.181051	854.861450	-40.384261	12.035854	33.922106	25.352083	45.000000	-45.000000	-3329.189074	-1906.658812	158.590329	19.045825	2158.305861	-209.825968	14.103367	14.076599	-5.732063	-45.000000	-41.154102	45.000000	-45.000000	-3853.594782	-1347.279846	18.298370	-180.000000	371.869352	195.585469	12.715755	-16.674486	
12.2700	33.058290	22.321376	30.357207	-112.947947	854.527772	-40.234862	12.014703	33.920000	25.305829	45.000000	-45.000000	-3329.135853	-1906.691641	158.593338	18.954985	2158.291027	-209.707911	14.237660	14.022714	-5.777206	-45.000000	-41.117043	45.000000	-45.000000	-3853.623917	-1347.321452	18.284222	-180.000000	371.813110	196.170858	12.485788	-16.945510	
12.2800	33.039139	22.315631	30.463288	-112.694898	854.135735	-40.088922	11.993851	33.914679	25.263450	45.000000	-45.000000	-3329.090552	-1906.721150	158.592963	18.855718	2158.278976	-209.588114	14.352516	14.002482	-5.817845	-45.000000	-41.059074	45.000000	-45.000000	-3853.647676	-1347.354367	18.274973	-180.000000	371.764026	196.744744	12.271820	-17.193028	
